<svg xmlns="http://www.w3.org/2000/svg" viewBox="0 0 500 500" width="500" height="500">
  <path stroke-width="0" d="M 210.418 105.867 C 215.06 104.666 216.323 104.975 219.057 105.867 C 221.972 106.817 225.521 108.853 227.304 111.758 C 229.308 115.021 230.592 121.195 229.661 125.11 C 228.764 128.879 227.055 131.29 222.199 134.928 C 213.336 141.567 183.203 154.462 171.932 158.49 C 165.348 160.843 163.962 161.016 157.795 161.632 C 151.116 162.299 141.897 162.072 132.034 161.834 C 132.094 166.588 131.869 172.377 131.326 179.001 C 129.787 197.766 121.181 237.901 119.544 258.329 C 118.376 272.916 119.269 285.281 119.544 292.887 C 119.709 297.417 121.198 299.33 120.33 302.312 C 119.4 305.506 116.447 309.455 113.654 311.345 C 111.018 313.128 107.545 314.176 104.229 313.701 C 100.403 313.153 94.585 309.781 92.055 307.025 C 89.98 304.764 89.602 303.461 88.913 299.171 C 87.591 290.934 87.59 271.519 88.913 255.972 C 90.395 238.562 96.388 217.209 98.338 199.422 C 99.712 186.892 98.911 171.781 99.576 161.238 C 87.944 160.989 76.221 160.63 69.042 160.061 C 61.357 159.452 57.256 159.258 52.548 157.705 C 48.401 156.337 44.364 154.806 41.945 151.814 C 39.445 148.723 37.519 143.142 38.018 139.247 C 38.506 135.43 41.441 130.814 44.694 128.644 C 48.05 126.405 53.252 126.145 58.046 126.288 C 63.381 126.447 66.461 129.319 75.325 130.215 C 91.47 131.847 131.27 135.766 154.653 131 C 175.726 126.706 200.263 108.495 210.418 105.867 Z M 191.568 211.753 C 196.315 211.128 199.404 211.455 202.564 212.538 C 205.482 213.539 208.271 215.048 210.025 217.644 C 212.05 220.641 213.886 226.349 213.167 230.211 C 212.447 234.073 209.81 238.247 205.705 240.814 C 200.411 244.125 186.814 240.863 181.75 245.919 C 176.421 251.238 172.98 270.533 175.467 273.016 C 177.502 275.049 185.587 269.353 190.782 265.947 C 196.813 261.994 204.28 254.8 209.24 249.846 C 213.32 245.77 215.181 240.871 219.057 238.457 C 222.71 236.183 227.763 234.597 231.624 235.316 C 235.487 236.035 239.932 238.111 242.227 242.777 C 245.673 249.781 239.682 275.685 244.191 278.514 C 247.94 280.866 260.233 269.944 263.434 266.733 C 265.223 264.938 264.393 263.445 265.79 262.02 C 267.559 260.216 271.165 258.078 274.037 257.308 C 276.803 256.566 279.942 256.416 282.677 257.308 C 285.591 258.258 289.144 260.351 290.924 263.198 C 292.877 266.323 294.297 271.559 293.28 275.765 C 292.114 280.586 288.388 285.329 282.677 290.295 C 274.534 297.376 254.874 308.632 244.976 312.287 C 238.243 314.774 233.122 315.83 228.483 314.643 C 224.226 313.555 220.455 310.404 217.879 306.396 C 214.864 301.706 217.244 288.688 212.774 287.154 C 207.276 285.266 192.5 300.472 183.713 303.648 C 176.574 306.228 169.394 307.632 164.078 306.789 C 159.716 306.098 156.387 304.215 153.475 300.899 C 149.939 296.872 147.06 289.12 145.62 282.834 C 144.182 276.553 144.163 270.07 144.835 263.198 C 145.565 255.73 147.209 246.819 150.333 239.636 C 153.405 232.572 156.958 224.999 163.292 220.393 C 170.272 215.318 184.524 212.68 191.568 211.753 Z M 340.243 210.496 C 345.07 209.397 347.89 209.503 351.239 210.496 C 354.561 211.482 358.355 213.423 360.271 216.387 C 362.371 219.636 363.494 225.913 362.627 229.739 C 361.823 233.288 359.804 236.143 355.951 238.772 C 350.354 242.589 329.185 243.471 328.854 247.804 C 328.494 252.52 353.288 260.294 358.7 266.654 C 362.455 271.068 362.576 274.952 363.413 280.006 C 364.366 285.767 365.086 293.939 363.413 299.642 C 361.854 304.954 358.662 309.338 354.38 313.387 C 349.492 318.008 342.124 321.642 334.745 325.168 C 326.598 329.061 314.161 335.547 307.255 335.379 C 302.294 335.258 298.302 332.744 295.866 329.488 C 293.256 325.998 292.125 318.361 292.725 314.565 C 293.186 311.64 293.938 310.369 297.044 307.889 C 302.945 303.179 329.23 296.098 332.781 291.002 C 334.613 288.373 333.518 285.802 331.603 283.541 C 328.735 280.154 317.595 278.206 312.753 274.901 C 308.764 272.179 306.243 269.381 303.72 265.869 C 301.1 262.22 298.418 257.32 297.437 253.302 C 296.574 249.766 296.266 247.037 297.437 243.091 C 299.04 237.692 302.72 229.047 308.826 223.849 C 316.058 217.692 332.647 212.226 340.243 210.496 Z M 412.586 130.697 C 415.082 130.298 417.971 130.47 420.44 131.483 C 423.1 132.574 426.148 134.485 427.901 137.374 C 429.976 140.791 430.429 145.382 431.043 151.511 C 431.912 160.19 431.269 173.698 431.043 186.07 C 430.856 196.33 430.894 209.034 430.297 219.986 C 440.202 212.339 449.914 204.927 453.82 201.307 C 457.512 197.885 457.862 195.984 459.711 194.631 C 461.083 193.626 461.962 193.359 463.638 193.06 C 465.868 192.662 469.543 192.168 472.278 193.06 C 475.192 194.01 478.745 196.103 480.525 198.951 C 482.478 202.075 484.071 207.098 482.881 211.517 C 481.392 217.047 474.992 223.361 469.136 229.189 C 462.343 235.95 444.849 243.158 443.61 249.218 C 442.683 253.751 450.681 256.353 453.035 261.784 C 455.916 268.432 454.743 285.358 458.14 287.311 C 460.632 288.742 464.75 282.195 468.351 281.027 C 471.832 279.899 476.018 279.273 479.347 280.242 C 482.7 281.218 486.485 284.047 488.379 286.918 C 490.221 289.711 491.162 293.825 490.735 297.128 C 490.299 300.505 488.726 303.758 485.63 306.946 C 481.411 311.291 472.231 316.909 465.209 319.513 C 458.593 321.967 450.226 323.678 444.788 322.655 C 440.336 321.817 437.11 320.559 434.185 315.979 C 429.443 308.553 427.806 281.948 424.76 275.137 C 423.298 271.868 422.624 271.164 420.44 270.031 C 420.344 269.981 420.244 269.935 420.141 269.891 C 416.09 284.57 410.774 302.47 405.517 308.203 C 401.398 312.694 396.052 312.527 392.165 312.13 C 388.708 311.777 385.168 309.909 383.132 307.025 C 380.758 303.66 379.448 299.581 379.991 292.102 C 380.98 278.452 395.418 248.835 398.841 226.126 C 402.32 203.042 400.619 167.562 400.412 154.653 C 400.314 148.541 398.798 147.103 399.626 143.657 C 400.467 140.158 403.126 136.008 405.517 133.839 C 407.561 131.985 410.109 131.094 412.586 130.697 Z M 213.952 360.591 C 214.754 364.427 214.256 367.66 213.952 373.943 C 213.456 384.223 211.974 406.309 210.025 419.497 C 209.098 425.769 208.092 432.073 206.896 437.589 C 213.438 436.931 219.024 436.442 225.027 438.112 C 233.039 440.341 244.324 446.786 248.197 451.857 C 251 455.528 251.282 460.031 250.553 463.638 C 249.828 467.228 247.009 471.42 243.877 473.456 C 240.65 475.553 235.767 476.445 231.31 475.812 C 226.169 475.082 219.095 469.021 214.816 467.958 C 211.89 467.231 211.966 467.454 207.747 467.958 C 197.51 469.18 154.88 481.969 144.128 480.525 C 139.011 479.837 137.661 477.481 135.881 474.634 C 133.928 471.509 132.818 465.757 133.525 462.067 C 134.186 458.621 135.937 455.647 139.416 453.035 C 144.292 449.372 153.801 446.763 162.978 444.395 C 166.003 443.615 169.45 442.858 173.089 442.152 C 173.067 441.171 173.074 440.163 173.11 439.133 C 173.412 430.393 179.248 418.434 180.964 406.145 C 182.384 395.983 181.639 380.583 182.095 369.41 C 175.165 372.878 171.676 378.081 167.377 379.519 C 164.146 380.6 161.537 380.469 158.737 379.519 C 155.627 378.465 151.599 375.714 149.705 372.843 C 147.863 370.051 146.825 366.141 147.348 362.633 C 147.934 358.706 149.365 354.515 154.025 350.459 C 161.55 343.908 182.965 335.493 195.652 330.823 C 206.464 326.843 216.002 323.783 225.498 322.969 C 234.261 322.218 242.92 323.767 250.631 325.325 C 257.743 326.762 264.997 328.88 270.267 331.609 C 274.707 333.907 278.729 336.492 280.87 339.855 C 282.864 342.988 283.927 347.258 283.227 350.851 C 282.471 354.731 279.104 360.11 275.765 362.24 C 272.602 364.258 268.706 364.495 263.984 363.811 C 257.588 362.885 247.089 355.947 240.421 354.386 C 235.26 353.177 233.228 352.577 227.069 353.6 C 223.643 354.169 218.651 355.549 213.137 357.324 C 213.461 358.367 213.716 359.463 213.952 360.591 Z M 306.554 363.183 C 310.277 363.256 317.988 364.709 321.084 368.288 C 324.246 371.941 325.512 378.134 325.093 385.209 C 350.598 378.597 378.25 372.189 387.766 370.723 C 393.627 369.82 394.19 369.817 397.191 370.723 C 400.359 371.678 404.193 373.998 406.224 376.613 C 408.189 379.144 409.769 382.655 409.365 386.038 C 408.89 390.023 408.43 394.885 401.904 398.998 C 389.29 406.948 341.243 413.213 312.883 420.263 C 312.018 422.719 311.314 425.055 310.873 427.194 C 308.843 437.047 305.417 450.263 309.303 453.506 C 313.093 456.67 326.092 450.008 333.258 447.223 C 339.84 444.664 346.731 441.094 350.93 437.798 C 354.149 435.27 354.607 431.654 357.606 429.943 C 360.875 428.079 366.483 426.88 370.173 427.587 C 373.619 428.248 377.289 430.514 379.205 433.478 C 381.305 436.727 382.671 442.522 381.561 446.83 C 380.336 451.586 375.856 456.293 370.958 460.575 C 365.073 465.72 355.57 470.903 347.396 474.713 C 339.329 478.472 330.57 481.947 322.262 483.352 C 314.344 484.691 305.423 485.132 298.699 483.352 C 292.692 481.762 286.562 477.837 283.384 474.32 C 280.838 471.503 280.27 469.56 279.456 464.895 C 278.244 457.944 277.562 444.98 278.957 433.161 C 269.387 437.688 261.246 441.548 255.815 441.411 C 250.246 441.27 247.374 437.921 245.212 434.735 C 243.032 431.522 242.08 425.942 242.856 422.168 C 243.609 418.504 245.34 415.62 249.532 412.35 C 256.255 407.106 268.64 402.092 284.876 396.642 C 286.611 396.06 288.543 395.441 290.641 394.792 C 292.528 389.59 293.996 385.177 294.38 382.425 C 294.922 378.531 292.924 377.852 293.594 375.357 C 294.416 372.294 297.819 367.539 300.27 365.539 C 302.221 363.947 303.883 363.13 306.554 363.183 Z" style="stroke-width: 2px; fill: rgb(51, 209, 201); stroke: rgb(192, 63, 197);"/>
</svg>